<mxfile host="app.diagrams.net" modified="2024-07-04T13:03:32.363Z" agent="Mozilla/5.0 (Windows NT 10.0; Win64; x64) AppleWebKit/537.36 (KHTML, like Gecko) Chrome/126.0.0.0 Safari/537.36" etag="-wWIsNSvWlrQ2bXtAJoi" version="24.6.4" type="device">
  <diagram name="Page-1" id="li7SO2UAR0W_lfBOpYuB">
    <mxGraphModel dx="1034" dy="446" grid="1" gridSize="10" guides="1" tooltips="1" connect="1" arrows="1" fold="1" page="1" pageScale="1" pageWidth="850" pageHeight="1100" math="0" shadow="0">
      <root>
        <mxCell id="0" />
        <mxCell id="1" parent="0" />
        <mxCell id="HMPYLawIaG8Oj3sOc-sD-1" value="" style="swimlane;startSize=0;" vertex="1" parent="1">
          <mxGeometry x="180" y="40" width="505" height="550" as="geometry" />
        </mxCell>
        <mxCell id="HMPYLawIaG8Oj3sOc-sD-2" value="&lt;font style=&quot;font-size: 24px;&quot;&gt;Online Courier Management System&amp;nbsp;&lt;/font&gt;" style="text;html=1;align=center;verticalAlign=middle;resizable=0;points=[];autosize=1;strokeColor=none;fillColor=none;" vertex="1" parent="HMPYLawIaG8Oj3sOc-sD-1">
          <mxGeometry x="35" width="420" height="40" as="geometry" />
        </mxCell>
        <mxCell id="HMPYLawIaG8Oj3sOc-sD-3" value="&lt;font style=&quot;font-size: 18px;&quot;&gt;Perform registration&lt;/font&gt;" style="ellipse;whiteSpace=wrap;html=1;" vertex="1" parent="HMPYLawIaG8Oj3sOc-sD-1">
          <mxGeometry x="170" y="50" width="160" height="50" as="geometry" />
        </mxCell>
        <mxCell id="HMPYLawIaG8Oj3sOc-sD-4" value="&lt;font style=&quot;font-size: 18px;&quot;&gt;Perform login&lt;/font&gt;" style="ellipse;whiteSpace=wrap;html=1;" vertex="1" parent="HMPYLawIaG8Oj3sOc-sD-1">
          <mxGeometry x="170" y="110" width="150" height="40" as="geometry" />
        </mxCell>
        <mxCell id="HMPYLawIaG8Oj3sOc-sD-5" value="&lt;font style=&quot;font-size: 14px;&quot;&gt;verify password&lt;/font&gt;" style="ellipse;whiteSpace=wrap;html=1;" vertex="1" parent="HMPYLawIaG8Oj3sOc-sD-1">
          <mxGeometry x="380" y="115" width="110" height="30" as="geometry" />
        </mxCell>
        <mxCell id="HMPYLawIaG8Oj3sOc-sD-11" value="&lt;font style=&quot;font-size: 14px;&quot;&gt;display invalid user&lt;/font&gt;" style="ellipse;whiteSpace=wrap;html=1;" vertex="1" parent="HMPYLawIaG8Oj3sOc-sD-1">
          <mxGeometry x="380" y="150" width="110" height="40" as="geometry" />
        </mxCell>
        <mxCell id="HMPYLawIaG8Oj3sOc-sD-13" value="&amp;lt;&amp;lt;include&amp;gt;&amp;gt;" style="endArrow=open;endSize=12;dashed=1;html=1;rounded=0;entryX=0;entryY=0.5;entryDx=0;entryDy=0;" edge="1" parent="HMPYLawIaG8Oj3sOc-sD-1" target="HMPYLawIaG8Oj3sOc-sD-5">
          <mxGeometry x="-0.0588" y="9" width="160" relative="1" as="geometry">
            <mxPoint x="310" y="120" as="sourcePoint" />
            <mxPoint x="470" y="120" as="targetPoint" />
            <mxPoint as="offset" />
          </mxGeometry>
        </mxCell>
        <mxCell id="HMPYLawIaG8Oj3sOc-sD-14" value="&amp;lt;&amp;lt;extend&amp;gt;&amp;gt;" style="endArrow=open;endSize=12;dashed=1;html=1;rounded=0;entryX=1;entryY=1;entryDx=0;entryDy=0;" edge="1" parent="HMPYLawIaG8Oj3sOc-sD-1" target="HMPYLawIaG8Oj3sOc-sD-4">
          <mxGeometry x="-0.3019" y="10" width="160" relative="1" as="geometry">
            <mxPoint x="380" y="164.5" as="sourcePoint" />
            <mxPoint x="540" y="164.5" as="targetPoint" />
            <mxPoint as="offset" />
          </mxGeometry>
        </mxCell>
        <mxCell id="HMPYLawIaG8Oj3sOc-sD-15" value="&lt;font size=&quot;3&quot;&gt;view products&lt;/font&gt;" style="ellipse;whiteSpace=wrap;html=1;" vertex="1" parent="HMPYLawIaG8Oj3sOc-sD-1">
          <mxGeometry x="40" y="180" width="140" height="40" as="geometry" />
        </mxCell>
        <mxCell id="HMPYLawIaG8Oj3sOc-sD-16" value="&lt;font size=&quot;3&quot;&gt;place order&lt;/font&gt;" style="ellipse;whiteSpace=wrap;html=1;" vertex="1" parent="HMPYLawIaG8Oj3sOc-sD-1">
          <mxGeometry x="40" y="230" width="140" height="30" as="geometry" />
        </mxCell>
        <mxCell id="HMPYLawIaG8Oj3sOc-sD-17" value="&lt;font style=&quot;font-size: 18px;&quot;&gt;pickup courier&lt;/font&gt;" style="ellipse;whiteSpace=wrap;html=1;" vertex="1" parent="HMPYLawIaG8Oj3sOc-sD-1">
          <mxGeometry x="40" y="310" width="150" height="30" as="geometry" />
        </mxCell>
        <mxCell id="HMPYLawIaG8Oj3sOc-sD-18" value="&lt;font style=&quot;font-size: 18px;&quot;&gt;deliver courier&lt;/font&gt;" style="ellipse;whiteSpace=wrap;html=1;" vertex="1" parent="HMPYLawIaG8Oj3sOc-sD-1">
          <mxGeometry x="40" y="350" width="140" height="30" as="geometry" />
        </mxCell>
        <mxCell id="HMPYLawIaG8Oj3sOc-sD-31" value="&lt;font style=&quot;font-size: 18px;&quot;&gt;communicate with customer and admin&lt;/font&gt;" style="ellipse;whiteSpace=wrap;html=1;" vertex="1" parent="HMPYLawIaG8Oj3sOc-sD-1">
          <mxGeometry x="25" y="390" width="180" height="70" as="geometry" />
        </mxCell>
        <mxCell id="HMPYLawIaG8Oj3sOc-sD-32" value="&lt;font size=&quot;3&quot;&gt;make payment&lt;/font&gt;" style="ellipse;whiteSpace=wrap;html=1;" vertex="1" parent="HMPYLawIaG8Oj3sOc-sD-1">
          <mxGeometry x="40" y="270" width="140" height="30" as="geometry" />
        </mxCell>
        <mxCell id="HMPYLawIaG8Oj3sOc-sD-33" value="&lt;font style=&quot;font-size: 18px;&quot;&gt;provide feedback&lt;/font&gt;" style="ellipse;whiteSpace=wrap;html=1;" vertex="1" parent="HMPYLawIaG8Oj3sOc-sD-1">
          <mxGeometry x="35" y="470" width="145" height="40" as="geometry" />
        </mxCell>
        <mxCell id="HMPYLawIaG8Oj3sOc-sD-34" value="&lt;font size=&quot;3&quot;&gt;manage user account&lt;/font&gt;" style="ellipse;whiteSpace=wrap;html=1;" vertex="1" parent="HMPYLawIaG8Oj3sOc-sD-1">
          <mxGeometry x="280" y="225" width="155" height="45" as="geometry" />
        </mxCell>
        <mxCell id="HMPYLawIaG8Oj3sOc-sD-36" value="&lt;font size=&quot;3&quot;&gt;manage delivery&lt;/font&gt;" style="ellipse;whiteSpace=wrap;html=1;" vertex="1" parent="HMPYLawIaG8Oj3sOc-sD-1">
          <mxGeometry x="280" y="290" width="170" height="40" as="geometry" />
        </mxCell>
        <mxCell id="HMPYLawIaG8Oj3sOc-sD-37" value="&lt;font size=&quot;3&quot;&gt;manage shipment&lt;/font&gt;" style="ellipse;whiteSpace=wrap;html=1;" vertex="1" parent="HMPYLawIaG8Oj3sOc-sD-1">
          <mxGeometry x="280" y="340" width="170" height="40" as="geometry" />
        </mxCell>
        <mxCell id="HMPYLawIaG8Oj3sOc-sD-38" value="&lt;font size=&quot;3&quot;&gt;manage payment&lt;/font&gt;" style="ellipse;whiteSpace=wrap;html=1;" vertex="1" parent="HMPYLawIaG8Oj3sOc-sD-1">
          <mxGeometry x="285" y="390" width="170" height="40" as="geometry" />
        </mxCell>
        <mxCell id="HMPYLawIaG8Oj3sOc-sD-39" value="Admin" style="shape=umlActor;verticalLabelPosition=bottom;verticalAlign=top;html=1;outlineConnect=0;" vertex="1" parent="1">
          <mxGeometry x="780" y="280" width="30" height="60" as="geometry" />
        </mxCell>
        <mxCell id="HMPYLawIaG8Oj3sOc-sD-40" value="" style="endArrow=none;html=1;rounded=0;exitX=0.6;exitY=1;exitDx=0;exitDy=0;exitPerimeter=0;" edge="1" parent="1" source="HMPYLawIaG8Oj3sOc-sD-4">
          <mxGeometry width="50" height="50" relative="1" as="geometry">
            <mxPoint x="730" y="360" as="sourcePoint" />
            <mxPoint x="780" y="310" as="targetPoint" />
          </mxGeometry>
        </mxCell>
        <mxCell id="HMPYLawIaG8Oj3sOc-sD-41" value="" style="endArrow=none;html=1;rounded=0;entryX=1;entryY=0.5;entryDx=0;entryDy=0;" edge="1" parent="1" target="HMPYLawIaG8Oj3sOc-sD-3">
          <mxGeometry width="50" height="50" relative="1" as="geometry">
            <mxPoint x="780" y="310" as="sourcePoint" />
            <mxPoint x="830" y="260" as="targetPoint" />
            <Array as="points">
              <mxPoint x="660" y="150" />
            </Array>
          </mxGeometry>
        </mxCell>
        <mxCell id="HMPYLawIaG8Oj3sOc-sD-42" value="" style="endArrow=none;html=1;rounded=0;exitX=1;exitY=0.5;exitDx=0;exitDy=0;" edge="1" parent="1" source="HMPYLawIaG8Oj3sOc-sD-34">
          <mxGeometry width="50" height="50" relative="1" as="geometry">
            <mxPoint x="730" y="360" as="sourcePoint" />
            <mxPoint x="780" y="310" as="targetPoint" />
          </mxGeometry>
        </mxCell>
        <mxCell id="HMPYLawIaG8Oj3sOc-sD-43" value="" style="endArrow=none;html=1;rounded=0;exitX=1;exitY=0.5;exitDx=0;exitDy=0;" edge="1" parent="1" source="HMPYLawIaG8Oj3sOc-sD-36">
          <mxGeometry width="50" height="50" relative="1" as="geometry">
            <mxPoint x="730" y="360" as="sourcePoint" />
            <mxPoint x="780" y="310" as="targetPoint" />
          </mxGeometry>
        </mxCell>
        <mxCell id="HMPYLawIaG8Oj3sOc-sD-46" value="" style="endArrow=none;html=1;rounded=0;exitX=1;exitY=0.5;exitDx=0;exitDy=0;" edge="1" parent="1" source="HMPYLawIaG8Oj3sOc-sD-37">
          <mxGeometry width="50" height="50" relative="1" as="geometry">
            <mxPoint x="730" y="360" as="sourcePoint" />
            <mxPoint x="780" y="310" as="targetPoint" />
          </mxGeometry>
        </mxCell>
        <mxCell id="HMPYLawIaG8Oj3sOc-sD-47" value="" style="endArrow=none;html=1;rounded=0;exitX=1;exitY=0.5;exitDx=0;exitDy=0;" edge="1" parent="1" source="HMPYLawIaG8Oj3sOc-sD-38">
          <mxGeometry width="50" height="50" relative="1" as="geometry">
            <mxPoint x="630" y="440" as="sourcePoint" />
            <mxPoint x="780" y="310" as="targetPoint" />
          </mxGeometry>
        </mxCell>
        <mxCell id="HMPYLawIaG8Oj3sOc-sD-48" value="Customer" style="shape=umlActor;verticalLabelPosition=bottom;verticalAlign=top;html=1;outlineConnect=0;" vertex="1" parent="1">
          <mxGeometry x="30" y="220" width="30" height="60" as="geometry" />
        </mxCell>
        <mxCell id="HMPYLawIaG8Oj3sOc-sD-49" value="" style="endArrow=none;html=1;rounded=0;entryX=0;entryY=0.5;entryDx=0;entryDy=0;" edge="1" parent="1" target="HMPYLawIaG8Oj3sOc-sD-3">
          <mxGeometry width="50" height="50" relative="1" as="geometry">
            <mxPoint x="80" y="250" as="sourcePoint" />
            <mxPoint x="130" y="200" as="targetPoint" />
          </mxGeometry>
        </mxCell>
        <mxCell id="HMPYLawIaG8Oj3sOc-sD-50" value="" style="endArrow=none;html=1;rounded=0;entryX=0;entryY=0.5;entryDx=0;entryDy=0;" edge="1" parent="1" target="HMPYLawIaG8Oj3sOc-sD-4">
          <mxGeometry width="50" height="50" relative="1" as="geometry">
            <mxPoint x="80" y="250" as="sourcePoint" />
            <mxPoint x="360" y="125" as="targetPoint" />
          </mxGeometry>
        </mxCell>
        <mxCell id="HMPYLawIaG8Oj3sOc-sD-51" value="" style="endArrow=none;html=1;rounded=0;entryX=0;entryY=0.5;entryDx=0;entryDy=0;" edge="1" parent="1" target="HMPYLawIaG8Oj3sOc-sD-15">
          <mxGeometry width="50" height="50" relative="1" as="geometry">
            <mxPoint x="80" y="250" as="sourcePoint" />
            <mxPoint x="360" y="180" as="targetPoint" />
          </mxGeometry>
        </mxCell>
        <mxCell id="HMPYLawIaG8Oj3sOc-sD-52" value="" style="endArrow=none;html=1;rounded=0;entryX=0;entryY=0.5;entryDx=0;entryDy=0;" edge="1" parent="1" target="HMPYLawIaG8Oj3sOc-sD-16">
          <mxGeometry width="50" height="50" relative="1" as="geometry">
            <mxPoint x="80" y="250" as="sourcePoint" />
            <mxPoint x="230" y="250" as="targetPoint" />
          </mxGeometry>
        </mxCell>
        <mxCell id="HMPYLawIaG8Oj3sOc-sD-53" value="" style="endArrow=none;html=1;rounded=0;entryX=0;entryY=0.5;entryDx=0;entryDy=0;" edge="1" parent="1">
          <mxGeometry width="50" height="50" relative="1" as="geometry">
            <mxPoint x="80" y="250" as="sourcePoint" />
            <mxPoint x="220" y="325" as="targetPoint" />
          </mxGeometry>
        </mxCell>
        <mxCell id="HMPYLawIaG8Oj3sOc-sD-54" value="" style="endArrow=none;html=1;rounded=0;entryX=0;entryY=0.5;entryDx=0;entryDy=0;" edge="1" parent="1" target="HMPYLawIaG8Oj3sOc-sD-33">
          <mxGeometry width="50" height="50" relative="1" as="geometry">
            <mxPoint x="80" y="250" as="sourcePoint" />
            <mxPoint x="220" y="365" as="targetPoint" />
            <Array as="points">
              <mxPoint y="430" />
            </Array>
          </mxGeometry>
        </mxCell>
        <mxCell id="HMPYLawIaG8Oj3sOc-sD-55" value="Courier staff" style="shape=umlActor;verticalLabelPosition=bottom;verticalAlign=top;html=1;outlineConnect=0;" vertex="1" parent="1">
          <mxGeometry x="50" y="360" width="30" height="60" as="geometry" />
        </mxCell>
        <mxCell id="HMPYLawIaG8Oj3sOc-sD-56" value="" style="endArrow=none;html=1;rounded=0;entryX=0;entryY=0.5;entryDx=0;entryDy=0;" edge="1" parent="1" target="HMPYLawIaG8Oj3sOc-sD-17">
          <mxGeometry width="50" height="50" relative="1" as="geometry">
            <mxPoint x="80" y="390" as="sourcePoint" />
            <mxPoint x="220" y="465" as="targetPoint" />
          </mxGeometry>
        </mxCell>
        <mxCell id="HMPYLawIaG8Oj3sOc-sD-57" value="" style="endArrow=none;html=1;rounded=0;entryX=0;entryY=0.5;entryDx=0;entryDy=0;" edge="1" parent="1" target="HMPYLawIaG8Oj3sOc-sD-18">
          <mxGeometry width="50" height="50" relative="1" as="geometry">
            <mxPoint x="80" y="390" as="sourcePoint" />
            <mxPoint x="210" y="465" as="targetPoint" />
          </mxGeometry>
        </mxCell>
        <mxCell id="HMPYLawIaG8Oj3sOc-sD-59" value="" style="endArrow=none;html=1;rounded=0;entryX=0;entryY=0.5;entryDx=0;entryDy=0;" edge="1" parent="1" target="HMPYLawIaG8Oj3sOc-sD-31">
          <mxGeometry width="50" height="50" relative="1" as="geometry">
            <mxPoint x="80" y="390" as="sourcePoint" />
            <mxPoint x="130" y="340" as="targetPoint" />
          </mxGeometry>
        </mxCell>
      </root>
    </mxGraphModel>
  </diagram>
</mxfile>
